<svg width="24" height="24" viewBox="0 0 24 24" fill="none" xmlns="http://www.w3.org/2000/svg">
<path d="M12 0C5.40351 0 0 5.4313 0 12.0617C0 18.6216 5.33333 24 11.8772 24H22.2807C23.2281 24 24 23.2241 24 22.2719V12.0441C24 5.4313 18.5965 0 12 0Z" fill="url(#paint0_linear_4003_5514)"/>
<path d="M12.7591 4.5C8.21295 4.5 4.5 8.22933 4.5 12.7955C4.5 17.3071 8.17673 21 12.6685 21H19.8227C20.4748 21 21 20.4724 21 19.8175V12.7773C21 8.22933 17.287 4.5 12.7591 4.5ZM12.7409 16.9068C10.4226 16.9068 8.55708 15.0331 8.55708 12.7409C8.55708 10.4487 10.4226 8.59316 12.7409 8.59316C15.0593 8.59316 16.9248 10.4487 16.9248 12.7409C16.9248 15.0331 15.0412 16.9068 12.7409 16.9068Z" fill="white"/>
<defs>
<linearGradient id="paint0_linear_4003_5514" x1="1.8484" y1="5.6512" x2="25.4895" y2="20.3482" gradientUnits="userSpaceOnUse">
<stop stop-color="#56207D"/>
<stop offset="1" stop-color="#A60069"/>
</linearGradient>
</defs>
</svg>
