<svg width="562" height="100" viewBox="0 0 562 100" fill="none" xmlns="http://www.w3.org/2000/svg">
<path d="M45.1065 0C20.3111 0 0 20.4409 0 45.3946C0 70.0829 20.0473 90.3247 44.6448 90.3247H83.7503C87.3113 90.3247 90.2129 87.4046 90.2129 83.8208V45.3283C90.2129 20.4409 69.9018 0 45.1065 0Z" fill="url(#paint0_linear_131_878)"/>
<path d="M52.6572 22.5811C36.0868 22.5811 22.5532 36.1912 22.5532 52.8553C22.5532 69.3202 35.9548 82.7975 52.3271 82.7975H78.404C80.7807 82.7975 82.6952 80.8722 82.6952 78.4821V52.7889C82.6952 36.1912 69.1616 22.5811 52.6572 22.5811ZM52.5912 67.8596C44.141 67.8596 37.3411 61.0213 37.3411 52.6561C37.3411 44.2909 44.141 37.519 52.5912 37.519C61.0414 37.519 67.8412 44.2909 67.8412 52.6561C67.8412 61.0213 60.9754 67.8596 52.5912 67.8596Z" fill="white"/>
<path d="M137.929 80.6083C134.114 80.6083 130.51 79.8944 127.118 78.4665C123.726 77 120.739 74.9547 118.157 72.3306C115.574 69.745 113.551 66.7349 112.086 63.3003C110.66 59.8657 109.947 56.2189 109.947 52.3598C109.947 48.5007 110.66 44.8538 112.086 41.4193C113.551 37.9847 115.574 34.9553 118.157 32.3311C120.739 29.7069 123.726 27.6809 127.118 26.253C130.51 24.7866 134.114 24.0534 137.929 24.0534C141.745 24.0534 145.33 24.7673 148.683 26.1952C152.075 27.623 155.062 29.6297 157.644 32.2153C160.188 34.8009 162.173 37.7917 163.599 41.1877C165.064 44.5837 165.835 48.192 165.912 52.0125V75.0512C165.912 76.5177 165.411 77.7719 164.408 78.8138C163.406 79.8172 162.173 80.3189 160.708 80.3189C159.244 80.3189 158.049 79.8172 157.124 78.8138C156.199 77.8105 155.736 76.5563 155.736 75.0512L155.678 74.2408C153.212 76.2861 150.456 77.8683 147.411 78.9875C144.405 80.068 141.244 80.6083 137.929 80.6083ZM137.929 70.3624C140.435 70.3624 142.766 69.8993 144.925 68.9731C147.083 68.047 148.991 66.7349 150.649 65.0369C152.267 63.3775 153.52 61.4672 154.407 59.3061C155.293 57.1064 155.736 54.791 155.736 52.3598C155.736 49.9285 155.293 47.6324 154.407 45.4713C153.52 43.2716 152.267 41.3421 150.649 39.6827C148.991 38.0233 147.064 36.7305 144.867 35.8043C142.709 34.8781 140.396 34.415 137.929 34.415C135.463 34.415 133.15 34.8781 130.992 35.8043C128.833 36.7305 126.945 38.0233 125.326 39.6827C123.707 41.3421 122.435 43.2716 121.51 45.4713C120.623 47.6324 120.18 49.9285 120.18 52.3598C120.18 54.791 120.623 57.1064 121.51 59.3061C122.435 61.4672 123.707 63.3775 125.326 65.0369C126.945 66.7349 128.833 68.047 130.992 68.9731C133.15 69.8993 135.463 70.3624 137.929 70.3624Z" fill="white"/>
<path d="M181.695 100C180.269 100 179.036 99.4792 177.995 98.4373C176.993 97.4339 176.492 96.1797 176.492 94.6747V52.3598C176.492 48.5393 177.224 44.9117 178.689 41.4771C180.153 38.004 182.196 34.9553 184.817 32.3311C187.399 29.7455 190.406 27.7195 193.836 26.253C197.305 24.7866 200.947 24.0534 204.763 24.0534C208.579 24.0534 212.202 24.7866 215.632 26.253C219.101 27.7195 222.127 29.7455 224.709 32.3311C227.292 34.9553 229.296 37.9847 230.722 41.4193C232.187 44.8538 232.919 48.5007 232.919 52.3598C232.919 56.2189 232.187 59.8657 230.722 63.3003C229.296 66.7349 227.292 69.745 224.709 72.3306C222.127 74.9161 219.101 76.9422 215.632 78.4086C212.202 79.8751 208.579 80.6083 204.763 80.6083C201.294 80.6083 198.037 80.0487 194.992 78.9296C191.948 77.8105 189.172 76.1896 186.667 74.0671V94.6747C186.667 96.1797 186.205 97.4339 185.28 98.4373C184.355 99.4792 183.16 100 181.695 100ZM204.763 70.3624C207.23 70.3624 209.562 69.8993 211.759 68.9731C213.956 68.047 215.883 66.7349 217.54 65.0369C219.197 63.3775 220.469 61.4672 221.356 59.3061C222.281 57.1064 222.743 54.791 222.743 52.3598C222.743 49.9285 222.281 47.6324 221.356 45.4713C220.469 43.2716 219.197 41.3421 217.54 39.6827C215.883 38.0233 213.956 36.7305 211.759 35.8043C209.562 34.8781 207.23 34.415 204.763 34.415C202.296 34.415 199.964 34.8781 197.768 35.8043C195.571 36.7305 193.643 38.0233 191.986 39.6827C190.329 41.3421 189.038 43.2716 188.112 45.4713C187.187 47.6324 186.725 49.9285 186.725 52.3598C186.725 54.791 187.187 57.1064 188.112 59.3061C189.038 61.4672 190.329 63.3775 191.986 65.0369C193.643 66.7349 195.571 68.047 197.768 68.9731C199.964 69.8993 202.296 70.3624 204.763 70.3624Z" fill="white"/>
<path d="M245.869 100C244.443 100 243.21 99.4792 242.169 98.4373C241.167 97.4339 240.666 96.1797 240.666 94.6747V52.3598C240.666 48.5393 241.398 44.9117 242.863 41.4771C244.328 38.004 246.37 34.9553 248.991 32.3311C251.574 29.7455 254.58 27.7195 258.01 26.253C261.479 24.7866 265.122 24.0534 268.937 24.0534C272.753 24.0534 276.376 24.7866 279.807 26.253C283.275 27.7195 286.301 29.7455 288.883 32.3311C291.466 34.9553 293.47 37.9847 294.896 41.4193C296.361 44.8538 297.093 48.5007 297.093 52.3598C297.093 56.2189 296.361 59.8657 294.896 63.3003C293.47 66.7349 291.466 69.745 288.883 72.3306C286.301 74.9161 283.275 76.9422 279.807 78.4086C276.376 79.8751 272.753 80.6083 268.937 80.6083C265.469 80.6083 262.212 80.0487 259.167 78.9296C256.122 77.8105 253.347 76.1896 250.841 74.0671V94.6747C250.841 96.1797 250.379 97.4339 249.454 98.4373C248.529 99.4792 247.334 100 245.869 100ZM268.937 70.3624C271.404 70.3624 273.736 69.8993 275.933 68.9731C278.13 68.047 280.057 66.7349 281.714 65.0369C283.372 63.3775 284.644 61.4672 285.53 59.3061C286.455 57.1064 286.918 54.791 286.918 52.3598C286.918 49.9285 286.455 47.6324 285.53 45.4713C284.644 43.2716 283.372 41.3421 281.714 39.6827C280.057 38.0233 278.13 36.7305 275.933 35.8043C273.736 34.8781 271.404 34.415 268.937 34.415C266.471 34.415 264.139 34.8781 261.942 35.8043C259.745 36.7305 257.818 38.0233 256.16 39.6827C254.503 41.3421 253.212 43.2716 252.287 45.4713C251.362 47.6324 250.899 49.9285 250.899 52.3598C250.899 54.791 251.362 57.1064 252.287 59.3061C253.212 61.4672 254.503 63.3775 256.16 65.0369C257.818 66.7349 259.745 68.047 261.942 68.9731C264.139 69.8993 266.471 70.3624 268.937 70.3624Z" fill="white"/>
<path d="M330.452 80.6083C326.636 80.6083 323.013 79.8944 319.583 78.4665C316.191 77 313.185 74.9547 310.564 72.3306C307.943 69.745 305.9 66.7349 304.436 63.3003C302.971 59.8271 302.239 56.1803 302.239 52.3598C302.239 48.5393 302.971 44.9117 304.436 41.4771C305.9 38.004 307.943 34.9553 310.564 32.3311C313.185 29.7069 316.191 27.6809 319.583 26.253C323.013 24.7866 326.636 24.0534 330.452 24.0534C334.307 24.0534 337.949 24.7866 341.379 26.253C344.848 27.7195 347.874 29.7455 350.456 32.3311C353.038 34.9553 355.043 37.9847 356.469 41.4193C357.933 44.8538 358.666 48.5007 358.666 52.3598C358.666 56.2189 357.933 59.8657 356.469 63.3003C355.043 66.7349 353.038 69.745 350.456 72.3306C347.874 74.9161 344.848 76.9422 341.379 78.4086C337.949 79.8751 334.307 80.6083 330.452 80.6083ZM330.452 70.3624C332.958 70.3624 335.289 69.8993 337.448 68.9731C339.645 68.047 341.572 66.7349 343.229 65.0369C344.887 63.3775 346.159 61.4672 347.045 59.3061C347.97 57.1064 348.433 54.791 348.433 52.3598C348.433 49.9285 347.97 47.6324 347.045 45.4713C346.159 43.2716 344.887 41.3421 343.229 39.6827C341.572 38.0233 339.645 36.7305 337.448 35.8043C335.289 34.8781 332.958 34.415 330.452 34.415C327.985 34.415 325.654 34.8781 323.457 35.8043C321.298 36.7305 319.39 38.0233 317.733 39.6827C316.076 41.3421 314.784 43.2716 313.859 45.4713C312.934 47.6324 312.472 49.9285 312.472 52.3598C312.472 54.791 312.934 57.1064 313.859 59.3061C314.784 61.4672 316.076 63.3775 317.733 65.0369C319.39 66.7349 321.298 68.047 323.457 68.9731C325.654 69.8993 327.985 70.3624 330.452 70.3624Z" fill="white"/>
<path d="M372.31 17.2228C370.73 17.2228 369.362 16.6439 368.205 15.4862C367.049 14.3285 366.471 12.9778 366.471 11.4341C366.471 9.85191 367.049 8.48194 368.205 7.32421C369.323 6.20508 370.691 5.64551 372.31 5.64551C373.852 5.64551 375.22 6.20508 376.415 7.32421C377.571 8.40476 378.149 9.77473 378.149 11.4341C378.149 13.055 377.571 14.4056 376.415 15.4862C375.182 16.6439 373.813 17.2228 372.31 17.2228ZM372.31 80.3189C370.884 80.3189 369.651 79.8365 368.61 78.8717C367.608 77.8683 367.107 76.6527 367.107 75.2249V29.2052C367.107 27.7388 367.627 26.5232 368.668 25.5584C369.67 24.555 370.903 24.0534 372.368 24.0534C373.755 24.0534 374.931 24.555 375.895 25.5584C376.858 26.5618 377.34 27.7774 377.34 29.2052V75.2249C377.34 76.6527 376.839 77.8683 375.837 78.8717C374.873 79.8365 373.698 80.3189 372.31 80.3189Z" fill="white"/>
<path d="M392.661 79.9137C391.196 79.9137 389.982 79.4313 389.018 78.4665C387.939 77.5017 387.4 76.3054 387.4 74.8775V51.3178C387.4 47.6131 388.074 44.1013 389.423 40.7825C390.772 37.4637 392.661 34.5501 395.089 32.0417C397.556 29.5333 400.408 27.5844 403.646 26.1952C406.883 24.7673 410.333 24.0534 413.994 24.0534C417.695 24.0534 421.163 24.7673 424.401 26.1952C427.677 27.5844 430.568 29.5333 433.073 32.0417C435.501 34.5501 437.39 37.4637 438.739 40.7825C440.088 44.1013 440.763 47.6131 440.763 51.3178V74.8775C440.763 76.344 440.281 77.5596 439.317 78.5244C438.354 79.4506 437.159 79.9137 435.733 79.9137C434.307 79.9137 433.093 79.4506 432.09 78.5244C431.088 77.5596 430.587 76.344 430.587 74.8775V51.4336C430.549 49.1181 430.105 46.9185 429.258 44.8345C428.448 42.7506 427.292 40.9369 425.789 39.3932C424.247 37.811 422.455 36.5761 420.412 35.6885C418.408 34.8009 416.268 34.3571 413.994 34.3571C411.682 34.3571 409.523 34.7816 407.519 35.6306C405.553 36.4796 403.819 37.6952 402.316 39.2775C400.813 40.8211 399.656 42.6349 398.847 44.7188C398.038 46.8027 397.633 49.0024 397.633 51.3178V74.8775C397.633 76.344 397.151 77.5596 396.188 78.5244C395.262 79.4506 394.087 79.9137 392.661 79.9137Z" fill="white"/>
<path d="M479.788 80.6083C475.895 80.6083 472.233 79.9137 468.803 78.5244C465.372 77.0965 462.366 75.1091 459.784 72.5621C457.163 69.9765 455.12 66.9857 453.655 63.5897C452.191 60.1937 451.458 56.5662 451.458 52.7071V12.4761C451.458 11.0482 451.979 9.81332 453.019 8.77137C454.021 7.76801 455.216 7.26632 456.604 7.26632C457.298 7.26632 457.972 7.40139 458.627 7.67153C459.283 7.94167 459.861 8.30828 460.362 8.77137C461.402 9.81332 461.923 11.0482 461.923 12.4761V23.8218H484.875C486.301 23.8218 487.515 24.3428 488.518 25.3847C489.52 26.3881 490.021 27.6037 490.021 29.0316C490.021 30.4209 489.52 31.5979 488.518 32.5626C487.554 33.4888 486.34 33.9519 484.875 33.9519H461.923V52.8229C461.923 55.2541 462.366 57.5502 463.253 59.7113C464.178 61.8338 465.469 63.7055 467.126 65.3263C468.745 66.9471 470.634 68.2013 472.792 69.0889C474.989 69.9765 477.321 70.4203 479.788 70.4203C484.49 70.4203 488.344 69.031 491.35 66.2525C492.584 65.0948 493.875 64.5159 495.224 64.5159C496.419 64.5159 497.498 64.9597 498.462 65.8473C499.387 66.7735 499.849 67.9119 499.849 69.2626C499.849 70.0344 499.676 70.8255 499.329 71.6359C499.021 72.4077 498.577 73.0831 497.999 73.6619C493.143 78.2928 487.072 80.6083 479.788 80.6083Z" fill="white"/>
<path d="M556.739 97.3953C555.313 97.3953 554.118 96.8936 553.154 95.8903C552.191 94.9255 551.709 93.7099 551.709 92.2434V71.9253C549.281 74.3566 546.564 76.2475 543.557 77.5982C540.589 78.9489 537.41 79.6242 534.018 79.6242C530.202 79.6242 526.579 78.9103 523.149 77.4824C519.718 76.016 516.712 73.99 514.129 71.4044C511.547 68.8188 509.524 65.8087 508.059 62.3741C506.633 58.9395 505.92 55.312 505.92 51.4915V29.2052C505.92 27.7388 506.421 26.5039 507.423 25.5005C508.425 24.4972 509.658 23.9955 511.123 23.9955C511.817 23.9955 512.472 24.1305 513.089 24.4007C513.744 24.6708 514.303 25.0374 514.765 25.5005C515.768 26.5039 516.269 27.7388 516.269 29.2052V51.723C516.269 54.0771 516.731 56.3153 517.656 58.4378C518.581 60.5603 519.872 62.432 521.53 64.0528C523.187 65.7122 525.076 67.005 527.196 67.9312C529.354 68.8188 531.628 69.2626 534.018 69.2626C536.33 69.2626 538.547 68.8188 540.666 67.9312C542.825 67.005 544.733 65.7122 546.39 64.0528C548.047 62.432 549.339 60.5603 550.264 58.4378C551.227 56.3153 551.709 54.0771 551.709 51.723V29.2052C551.709 27.7388 552.21 26.5039 553.212 25.5005C553.675 25.0374 554.214 24.6708 554.831 24.4007C555.486 24.1305 556.161 23.9955 556.855 23.9955C558.204 23.9955 559.418 24.4972 560.497 25.5005C561.499 26.5039 562 27.7388 562 29.2052V92.2434C562 93.7099 561.48 94.9255 560.439 95.8903C559.437 96.8936 558.204 97.3953 556.739 97.3953Z" fill="white"/>
<defs>
<linearGradient id="paint0_linear_131_878" x1="6.94791" y1="21.2685" x2="95.8729" y2="76.4822" gradientUnits="userSpaceOnUse">
<stop stop-color="#56207D"/>
<stop offset="1" stop-color="#A60069"/>
</linearGradient>
</defs>
</svg>
