<svg width="200" height="36" viewBox="0 0 200 36" fill="none" xmlns="http://www.w3.org/2000/svg">
<path d="M16 0C7.20468 0 0 7.24173 0 16.0823C0 24.8288 7.11111 32 15.8363 32H29.7076C30.9708 32 32 30.9655 32 29.6958V16.0588C32 7.24173 24.7953 0 16 0Z" fill="url(#paint0_linear_4004_5546)"/>
<path d="M18.6784 8C12.8006 8 8 12.8218 8 18.7255C8 24.5586 12.7538 29.3333 18.5613 29.3333H27.8112C28.6542 29.3333 29.3333 28.6512 29.3333 27.8045V18.7019C29.3333 12.8218 24.5327 8 18.6784 8ZM18.655 24.0412C15.6575 24.0412 13.2455 21.6185 13.2455 18.6549C13.2455 15.6913 15.6575 13.2922 18.655 13.2922C21.6524 13.2922 24.0644 15.6913 24.0644 18.6549C24.0644 21.6185 21.629 24.0412 18.655 24.0412Z" fill="white"/>
<path d="M48.9258 28.5576C47.5723 28.5576 46.2939 28.3047 45.0908 27.7988C43.8877 27.2793 42.8281 26.5547 41.9121 25.625C40.9961 24.709 40.2783 23.6426 39.7588 22.4258C39.2529 21.209 39 19.917 39 18.5498C39 17.1826 39.2529 15.8906 39.7588 14.6738C40.2783 13.457 40.9961 12.3838 41.9121 11.4541C42.8281 10.5244 43.8877 9.80664 45.0908 9.30078C46.2939 8.78125 47.5723 8.52148 48.9258 8.52148C50.2793 8.52148 51.5508 8.77441 52.7402 9.28027C53.9434 9.78613 55.0029 10.4971 55.9189 11.4131C56.8213 12.3291 57.5254 13.3887 58.0312 14.5918C58.5508 15.7949 58.8242 17.0732 58.8516 18.4268V26.5889C58.8516 27.1084 58.6738 27.5527 58.3184 27.9219C57.9629 28.2773 57.5254 28.4551 57.0059 28.4551C56.4863 28.4551 56.0625 28.2773 55.7344 27.9219C55.4062 27.5664 55.2422 27.1221 55.2422 26.5889L55.2217 26.3018C54.3467 27.0264 53.3691 27.5869 52.2891 27.9834C51.2227 28.3662 50.1016 28.5576 48.9258 28.5576ZM48.9258 24.9277C49.8145 24.9277 50.6416 24.7637 51.4072 24.4355C52.1729 24.1074 52.8496 23.6426 53.4375 23.041C54.0117 22.4531 54.4561 21.7764 54.7705 21.0107C55.085 20.2314 55.2422 19.4111 55.2422 18.5498C55.2422 17.6885 55.085 16.875 54.7705 16.1094C54.4561 15.3301 54.0117 14.6465 53.4375 14.0586C52.8496 13.4707 52.166 13.0127 51.3867 12.6846C50.6211 12.3564 49.8008 12.1924 48.9258 12.1924C48.0508 12.1924 47.2305 12.3564 46.4648 12.6846C45.6992 13.0127 45.0293 13.4707 44.4551 14.0586C43.8809 14.6465 43.4297 15.3301 43.1016 16.1094C42.7871 16.875 42.6299 17.6885 42.6299 18.5498C42.6299 19.4111 42.7871 20.2314 43.1016 21.0107C43.4297 21.7764 43.8809 22.4531 44.4551 23.041C45.0293 23.6426 45.6992 24.1074 46.4648 24.4355C47.2305 24.7637 48.0508 24.9277 48.9258 24.9277Z" fill="black"/>
<path d="M64.4502 35.4277C63.9443 35.4277 63.5068 35.2432 63.1377 34.874C62.7822 34.5186 62.6045 34.0742 62.6045 33.541V18.5498C62.6045 17.1963 62.8643 15.9111 63.3838 14.6943C63.9033 13.4639 64.6279 12.3838 65.5576 11.4541C66.4736 10.5381 67.54 9.82031 68.7568 9.30078C69.9873 8.78125 71.2793 8.52148 72.6328 8.52148C73.9863 8.52148 75.2715 8.78125 76.4883 9.30078C77.7188 9.82031 78.792 10.5381 79.708 11.4541C80.624 12.3838 81.335 13.457 81.8408 14.6738C82.3604 15.8906 82.6201 17.1826 82.6201 18.5498C82.6201 19.917 82.3604 21.209 81.8408 22.4258C81.335 23.6426 80.624 24.709 79.708 25.625C78.792 26.541 77.7188 27.2588 76.4883 27.7783C75.2715 28.2979 73.9863 28.5576 72.6328 28.5576C71.4023 28.5576 70.2471 28.3594 69.167 27.9629C68.0869 27.5664 67.1025 26.9922 66.2139 26.2402V33.541C66.2139 34.0742 66.0498 34.5186 65.7217 34.874C65.3936 35.2432 64.9697 35.4277 64.4502 35.4277ZM72.6328 24.9277C73.5078 24.9277 74.335 24.7637 75.1143 24.4355C75.8936 24.1074 76.5771 23.6426 77.165 23.041C77.7529 22.4531 78.2041 21.7764 78.5186 21.0107C78.8467 20.2314 79.0107 19.4111 79.0107 18.5498C79.0107 17.6885 78.8467 16.875 78.5186 16.1094C78.2041 15.3301 77.7529 14.6465 77.165 14.0586C76.5771 13.4707 75.8936 13.0127 75.1143 12.6846C74.335 12.3564 73.5078 12.1924 72.6328 12.1924C71.7578 12.1924 70.9307 12.3564 70.1514 12.6846C69.3721 13.0127 68.6885 13.4707 68.1006 14.0586C67.5127 14.6465 67.0547 15.3301 66.7266 16.1094C66.3984 16.875 66.2344 17.6885 66.2344 18.5498C66.2344 19.4111 66.3984 20.2314 66.7266 21.0107C67.0547 21.7764 67.5127 22.4531 68.1006 23.041C68.6885 23.6426 69.3721 24.1074 70.1514 24.4355C70.9307 24.7637 71.7578 24.9277 72.6328 24.9277Z" fill="black"/>
<path d="M87.2139 35.4277C86.708 35.4277 86.2705 35.2432 85.9014 34.874C85.5459 34.5186 85.3682 34.0742 85.3682 33.541V18.5498C85.3682 17.1963 85.6279 15.9111 86.1475 14.6943C86.667 13.4639 87.3916 12.3838 88.3213 11.4541C89.2373 10.5381 90.3037 9.82031 91.5205 9.30078C92.751 8.78125 94.043 8.52148 95.3965 8.52148C96.75 8.52148 98.0352 8.78125 99.252 9.30078C100.482 9.82031 101.556 10.5381 102.472 11.4541C103.388 12.3838 104.099 13.457 104.604 14.6738C105.124 15.8906 105.384 17.1826 105.384 18.5498C105.384 19.917 105.124 21.209 104.604 22.4258C104.099 23.6426 103.388 24.709 102.472 25.625C101.556 26.541 100.482 27.2588 99.252 27.7783C98.0352 28.2979 96.75 28.5576 95.3965 28.5576C94.166 28.5576 93.0107 28.3594 91.9307 27.9629C90.8506 27.5664 89.8662 26.9922 88.9775 26.2402V33.541C88.9775 34.0742 88.8135 34.5186 88.4854 34.874C88.1572 35.2432 87.7334 35.4277 87.2139 35.4277ZM95.3965 24.9277C96.2715 24.9277 97.0986 24.7637 97.8779 24.4355C98.6572 24.1074 99.3408 23.6426 99.9287 23.041C100.517 22.4531 100.968 21.7764 101.282 21.0107C101.61 20.2314 101.774 19.4111 101.774 18.5498C101.774 17.6885 101.61 16.875 101.282 16.1094C100.968 15.3301 100.517 14.6465 99.9287 14.0586C99.3408 13.4707 98.6572 13.0127 97.8779 12.6846C97.0986 12.3564 96.2715 12.1924 95.3965 12.1924C94.5215 12.1924 93.6943 12.3564 92.915 12.6846C92.1357 13.0127 91.4521 13.4707 90.8643 14.0586C90.2764 14.6465 89.8184 15.3301 89.4902 16.1094C89.1621 16.875 88.998 17.6885 88.998 18.5498C88.998 19.4111 89.1621 20.2314 89.4902 21.0107C89.8184 21.7764 90.2764 22.4531 90.8643 23.041C91.4521 23.6426 92.1357 24.1074 92.915 24.4355C93.6943 24.7637 94.5215 24.9277 95.3965 24.9277Z" fill="black"/>
<path d="M117.217 28.5576C115.863 28.5576 114.578 28.3047 113.361 27.7988C112.158 27.2793 111.092 26.5547 110.162 25.625C109.232 24.709 108.508 23.6426 107.988 22.4258C107.469 21.1953 107.209 19.9033 107.209 18.5498C107.209 17.1963 107.469 15.9111 107.988 14.6943C108.508 13.4639 109.232 12.3838 110.162 11.4541C111.092 10.5244 112.158 9.80664 113.361 9.30078C114.578 8.78125 115.863 8.52148 117.217 8.52148C118.584 8.52148 119.876 8.78125 121.093 9.30078C122.323 9.82031 123.396 10.5381 124.312 11.4541C125.229 12.3838 125.939 13.457 126.445 14.6738C126.965 15.8906 127.225 17.1826 127.225 18.5498C127.225 19.917 126.965 21.209 126.445 22.4258C125.939 23.6426 125.229 24.709 124.312 25.625C123.396 26.541 122.323 27.2588 121.093 27.7783C119.876 28.2979 118.584 28.5576 117.217 28.5576ZM117.217 24.9277C118.105 24.9277 118.933 24.7637 119.698 24.4355C120.478 24.1074 121.161 23.6426 121.749 23.041C122.337 22.4531 122.788 21.7764 123.103 21.0107C123.431 20.2314 123.595 19.4111 123.595 18.5498C123.595 17.6885 123.431 16.875 123.103 16.1094C122.788 15.3301 122.337 14.6465 121.749 14.0586C121.161 13.4707 120.478 13.0127 119.698 12.6846C118.933 12.3564 118.105 12.1924 117.217 12.1924C116.342 12.1924 115.515 12.3564 114.735 12.6846C113.97 13.0127 113.293 13.4707 112.705 14.0586C112.117 14.6465 111.659 15.3301 111.331 16.1094C111.003 16.875 110.839 17.6885 110.839 18.5498C110.839 19.4111 111.003 20.2314 111.331 21.0107C111.659 21.7764 112.117 22.4531 112.705 23.041C113.293 23.6426 113.97 24.1074 114.735 24.4355C115.515 24.7637 116.342 24.9277 117.217 24.9277Z" fill="black"/>
<path d="M132.064 6.10156C131.504 6.10156 131.019 5.89648 130.608 5.48633C130.198 5.07617 129.993 4.59766 129.993 4.05078C129.993 3.49023 130.198 3.00488 130.608 2.59473C131.005 2.19824 131.49 2 132.064 2C132.611 2 133.097 2.19824 133.521 2.59473C133.931 2.97754 134.136 3.46289 134.136 4.05078C134.136 4.625 133.931 5.10352 133.521 5.48633C133.083 5.89648 132.598 6.10156 132.064 6.10156ZM132.064 28.4551C131.559 28.4551 131.121 28.2842 130.752 27.9424C130.396 27.5869 130.219 27.1562 130.219 26.6504V10.3467C130.219 9.82715 130.403 9.39648 130.772 9.05469C131.128 8.69922 131.565 8.52148 132.085 8.52148C132.577 8.52148 132.994 8.69922 133.336 9.05469C133.678 9.41016 133.849 9.84082 133.849 10.3467V26.6504C133.849 27.1562 133.671 27.5869 133.315 27.9424C132.974 28.2842 132.557 28.4551 132.064 28.4551Z" fill="black"/>
<path d="M139.283 28.3115C138.764 28.3115 138.333 28.1406 137.991 27.7988C137.608 27.457 137.417 27.0332 137.417 26.5273V18.1807C137.417 16.8682 137.656 15.624 138.135 14.4482C138.613 13.2725 139.283 12.2402 140.145 11.3516C141.02 10.4629 142.031 9.77246 143.18 9.28027C144.328 8.77441 145.552 8.52148 146.851 8.52148C148.163 8.52148 149.394 8.77441 150.542 9.28027C151.704 9.77246 152.729 10.4629 153.618 11.3516C154.479 12.2402 155.149 13.2725 155.628 14.4482C156.106 15.624 156.346 16.8682 156.346 18.1807V26.5273C156.346 27.0469 156.175 27.4775 155.833 27.8193C155.491 28.1475 155.067 28.3115 154.562 28.3115C154.056 28.3115 153.625 28.1475 153.27 27.8193C152.914 27.4775 152.736 27.0469 152.736 26.5273V18.2217C152.723 17.4014 152.565 16.6221 152.265 15.8838C151.978 15.1455 151.567 14.5029 151.034 13.9561C150.487 13.3955 149.852 12.958 149.127 12.6436C148.416 12.3291 147.657 12.1719 146.851 12.1719C146.03 12.1719 145.265 12.3223 144.554 12.623C143.856 12.9238 143.241 13.3545 142.708 13.915C142.175 14.4619 141.765 15.1045 141.478 15.8428C141.19 16.5811 141.047 17.3604 141.047 18.1807V26.5273C141.047 27.0469 140.876 27.4775 140.534 27.8193C140.206 28.1475 139.789 28.3115 139.283 28.3115Z" fill="black"/>
<path d="M170.188 28.5576C168.808 28.5576 167.509 28.3115 166.292 27.8193C165.075 27.3135 164.009 26.6094 163.093 25.707C162.163 24.791 161.438 23.7314 160.919 22.5283C160.399 21.3252 160.14 20.04 160.14 18.6729V4.41992C160.14 3.91406 160.324 3.47656 160.693 3.10742C161.049 2.75195 161.473 2.57422 161.965 2.57422C162.211 2.57422 162.45 2.62207 162.683 2.71777C162.915 2.81348 163.12 2.94336 163.298 3.10742C163.667 3.47656 163.852 3.91406 163.852 4.41992V8.43945H171.993C172.499 8.43945 172.93 8.62402 173.285 8.99316C173.641 9.34863 173.818 9.7793 173.818 10.2852C173.818 10.7773 173.641 11.1943 173.285 11.5361C172.943 11.8643 172.513 12.0283 171.993 12.0283H163.852V18.7139C163.852 19.5752 164.009 20.3887 164.323 21.1543C164.651 21.9062 165.109 22.5693 165.697 23.1436C166.271 23.7178 166.941 24.1621 167.707 24.4766C168.486 24.791 169.313 24.9482 170.188 24.9482C171.856 24.9482 173.224 24.4561 174.29 23.4717C174.728 23.0615 175.186 22.8564 175.664 22.8564C176.088 22.8564 176.471 23.0137 176.812 23.3281C177.141 23.6562 177.305 24.0596 177.305 24.5381C177.305 24.8115 177.243 25.0918 177.12 25.3789C177.011 25.6523 176.854 25.8916 176.648 26.0967C174.926 27.7373 172.772 28.5576 170.188 28.5576Z" fill="black"/>
<path d="M197.484 34.5049C196.979 34.5049 196.555 34.3271 196.213 33.9717C195.871 33.6299 195.7 33.1992 195.7 32.6797V25.4814C194.839 26.3428 193.875 27.0127 192.809 27.4912C191.756 27.9697 190.628 28.209 189.425 28.209C188.071 28.209 186.786 27.9561 185.569 27.4502C184.353 26.9307 183.286 26.2129 182.37 25.2969C181.454 24.3809 180.736 23.3145 180.217 22.0977C179.711 20.8809 179.458 19.5957 179.458 18.2422V10.3467C179.458 9.82715 179.636 9.38965 179.991 9.03418C180.347 8.67871 180.784 8.50098 181.304 8.50098C181.55 8.50098 181.782 8.54883 182.001 8.64453C182.233 8.74023 182.432 8.87012 182.596 9.03418C182.951 9.38965 183.129 9.82715 183.129 10.3467V18.3242C183.129 19.1582 183.293 19.9512 183.621 20.7031C183.949 21.4551 184.407 22.1182 184.995 22.6924C185.583 23.2803 186.253 23.7383 187.005 24.0664C187.771 24.3809 188.577 24.5381 189.425 24.5381C190.245 24.5381 191.031 24.3809 191.783 24.0664C192.549 23.7383 193.226 23.2803 193.813 22.6924C194.401 22.1182 194.859 21.4551 195.188 20.7031C195.529 19.9512 195.7 19.1582 195.7 18.3242V10.3467C195.7 9.82715 195.878 9.38965 196.233 9.03418C196.397 8.87012 196.589 8.74023 196.808 8.64453C197.04 8.54883 197.279 8.50098 197.525 8.50098C198.004 8.50098 198.435 8.67871 198.817 9.03418C199.173 9.38965 199.351 9.82715 199.351 10.3467V32.6797C199.351 33.1992 199.166 33.6299 198.797 33.9717C198.441 34.3271 198.004 34.5049 197.484 34.5049Z" fill="black"/>
<defs>
<linearGradient id="paint0_linear_4004_5546" x1="2.46454" y1="7.53493" x2="33.9859" y2="27.1309" gradientUnits="userSpaceOnUse">
<stop stop-color="#56207D"/>
<stop offset="1" stop-color="#A60069"/>
</linearGradient>
</defs>
</svg>
